<?xml version="1.0" standalone="no"?>
<!DOCTYPE svg PUBLIC "-//W3C//DTD SVG 20010904//EN"
 "http://www.w3.org/TR/2001/REC-SVG-20010904/DTD/svg10.dtd">
<svg version="1.0" xmlns="http://www.w3.org/2000/svg"
 width="1024.000000pt" height="1024.000000pt" viewBox="0 0 1024.000000 1024.000000"
 preserveAspectRatio="xMidYMid meet">

<g transform="translate(0.000000,1024.000000) scale(0.100000,-0.100000)"
fill="#000000" stroke="none">
<path d="M2868 6272 c-16 -2 -28 -8 -28 -13 0 -5 -6 -9 -13 -9 -18 0 -67 -59
-67 -81 0 -10 -4 -19 -10 -19 -7 0 -10 -340 -10 -1000 0 -550 4 -1000 8 -1000
4 0 13 -13 19 -30 10 -27 15 -30 57 -30 42 0 46 -2 46 -25 0 -14 5 -25 10 -25
6 0 10 -65 10 -174 0 -176 7 -226 34 -226 8 0 16 -6 18 -12 3 -9 34 -14 95
-16 101 -4 123 6 123 59 0 16 4 29 8 29 4 0 13 37 19 81 6 45 14 84 19 88 12
8 34 48 34 60 0 14 74 91 87 91 6 0 13 7 17 15 3 8 12 15 21 15 8 0 15 5 15
10 0 6 9 10 20 10 11 0 20 5 20 10 0 7 347 10 1020 10 673 0 1020 -3 1020 -10
0 -5 -4 -10 -8 -10 -5 0 -17 -19 -27 -42 -10 -24 -27 -51 -37 -62 -10 -11 -18
-30 -18 -43 0 -13 -4 -23 -8 -23 -9 0 -32 -102 -32 -143 0 -15 -4 -27 -10 -27
-5 0 -10 -18 -10 -40 0 -22 5 -40 10 -40 6 0 10 -6 10 -14 0 -19 31 -29 64
-20 28 7 30 15 41 137 4 37 10 67 14 67 5 0 14 20 21 45 7 25 16 45 20 45 5 0
13 13 18 29 11 32 39 64 65 74 9 3 17 11 17 17 0 5 7 10 15 10 9 0 18 7 21 15
4 8 15 15 25 15 10 0 19 5 19 10 0 6 57 10 150 10 93 0 150 -4 150 -10 0 -5 7
-10 15 -10 8 0 15 -4 15 -9 0 -5 9 -13 21 -16 11 -4 33 -20 50 -36 16 -16 33
-29 37 -29 5 0 14 -16 21 -35 7 -19 16 -35 20 -35 4 0 14 -19 21 -42 7 -24 17
-46 22 -49 5 -3 15 -49 21 -102 11 -97 11 -97 42 -103 42 -7 472 -1 480 8 4 4
12 47 18 95 6 48 13 90 17 93 4 3 13 23 20 45 7 22 19 44 26 48 8 4 14 15 14
24 0 19 91 109 120 118 11 3 20 11 20 16 0 5 9 9 20 9 11 0 20 5 20 10 0 6 40
10 100 10 60 0 100 -4 100 -10 0 -5 9 -10 20 -10 11 0 20 -4 20 -9 0 -5 11
-12 25 -15 14 -4 25 -11 25 -16 0 -6 7 -10 15 -10 9 0 18 -7 21 -15 4 -8 11
-15 18 -15 13 0 46 -35 46 -50 0 -6 8 -18 18 -28 23 -23 52 -94 52 -127 0 -14
4 -25 9 -25 4 0 12 -31 15 -70 l7 -69 35 -7 c19 -3 80 -4 135 -2 82 3 103 7
111 21 5 10 19 26 31 38 l22 20 3 502 c2 483 -2 591 -28 607 -5 3 -15 28 -22
55 -7 28 -15 52 -19 55 -3 3 -14 30 -24 60 -10 30 -21 57 -24 60 -4 3 -12 27
-19 55 -7 27 -17 52 -22 55 -5 3 -14 28 -20 55 -6 27 -15 52 -20 55 -5 3 -15
28 -22 55 -7 28 -15 52 -19 55 -3 3 -12 23 -19 44 -7 22 -25 51 -39 65 -21 20
-29 42 -38 100 -6 41 -16 77 -20 80 -5 3 -15 22 -23 41 -8 19 -22 44 -32 55
-10 11 -29 32 -42 48 -14 15 -29 27 -34 27 -6 0 -12 7 -16 15 -3 8 -12 15 -20
15 -7 0 -16 7 -20 15 -3 8 -12 15 -21 15 -8 0 -15 4 -15 10 0 5 -11 12 -25 16
-14 3 -25 10 -25 14 0 5 -18 11 -40 15 -22 4 -40 11 -40 16 0 4 -22 11 -50 15
-27 4 -50 10 -50 15 0 14 -38 11 -44 -3 -5 -10 -7 -10 -12 0 -3 6 -23 12 -45
12 -21 0 -39 5 -39 10 0 6 -30 10 -71 10 -53 0 -75 -4 -87 -17 -16 -15 -17
-95 -20 -1000 l-2 -983 -235 0 c-227 0 -236 1 -253 21 -9 12 -23 27 -29 34 -7
8 -13 16 -13 19 0 3 89 6 198 6 187 0 200 1 223 21 l24 21 0 1031 0 1032 -21
21 c-12 12 -26 29 -30 37 -8 13 -218 15 -1844 19 -1009 1 -1847 2 -1862 0z
m3639 -1009 c-4 -489 -7 -918 -7 -955 l0 -68 -1820 0 -1820 0 0 955 0 955
1827 0 1826 0 -6 -887z m463 597 c3 -4 31 -10 63 -14 31 -4 57 -12 57 -17 0
-5 9 -9 20 -9 11 0 20 -4 20 -9 0 -5 14 -13 32 -16 17 -4 36 -11 42 -16 30
-26 56 -45 76 -59 34 -23 60 -52 60 -68 0 -8 7 -20 15 -26 9 -6 18 -28 22 -49
l6 -37 -277 0 -276 0 0 170 0 171 68 -7 c37 -4 69 -10 72 -14z m440 -450 c0
-5 6 -10 14 -10 17 0 46 -43 46 -70 0 -20 -5 -20 -229 -20 -194 0 -230 -2
-235 -15 -3 -8 -12 -15 -20 -15 -14 0 -36 -48 -36 -81 0 -11 -4 -19 -10 -19
-6 0 -10 -68 -10 -185 0 -117 4 -185 10 -185 6 0 10 -12 10 -27 0 -36 48 -93
78 -93 12 0 22 -4 22 -9 0 -5 52 -12 115 -16 63 -4 115 -11 115 -15 0 -5 47
-11 105 -15 58 -4 105 -11 105 -15 0 -4 48 -10 106 -14 76 -5 111 -12 125 -24
18 -16 19 -32 19 -294 l0 -278 -118 0 c-126 0 -140 5 -156 58 -4 12 -15 24
-26 27 -10 3 -21 12 -24 20 -3 8 -12 15 -20 15 -7 0 -16 7 -20 15 -3 8 -12 15
-21 15 -8 0 -15 4 -15 10 0 5 -12 13 -27 16 -16 4 -31 12 -34 17 -9 13 -303
10 -307 -3 -2 -6 -12 -10 -23 -10 -11 0 -22 -7 -25 -15 -4 -8 -12 -15 -19 -15
-7 0 -19 -10 -27 -22 -9 -14 -20 -19 -31 -15 -16 6 -17 57 -17 652 l0 645 290
0 c187 0 290 -4 290 -10z m135 -265 c5 -16 13 -32 16 -35 4 -3 13 -25 20 -50
7 -25 16 -47 19 -50 4 -3 12 -26 20 -52 7 -27 16 -48 20 -48 5 0 13 -23 20
-52 6 -29 15 -55 21 -58 5 -4 12 -23 16 -43 4 -29 2 -37 -10 -37 -8 0 -17 4
-19 9 -1 6 -54 13 -115 17 -62 4 -113 10 -113 14 0 4 -49 11 -110 15 -60 4
-110 11 -110 16 0 14 -38 11 -43 -3 -4 -9 -8 -10 -14 -2 -4 6 -26 14 -47 18
-65 12 -66 15 -66 205 l0 171 242 -2 243 -3 10 -30z m-1947 -932 c-505 -2
-1331 -2 -1835 0 -505 1 -92 2 917 2 1009 0 1422 -1 918 -2z m-2408 -143 c0
-10 -6 -23 -14 -27 -7 -4 -21 -26 -32 -48 -10 -22 -21 -42 -24 -45 -10 -8 -30
-85 -30 -114 0 -14 -4 -26 -10 -26 -5 0 -13 -18 -16 -40 -7 -41 -12 -44 -51
-34 -23 6 -23 8 -23 180 l0 174 100 0 c92 0 100 -1 100 -20z m3472 -235 c-2
-22 -7 -42 -12 -45 -4 -3 -10 -15 -11 -28 -2 -12 -7 -23 -11 -22 -5 0 -73 0
-153 0 -136 0 -145 1 -145 19 0 11 -4 21 -9 23 -4 2 -11 24 -15 51 l-7 47 183
-2 183 -3 -3 -40z m1076 -4 c6 -82 -1 -91 -64 -91 -31 0 -61 5 -68 13 -6 6
-17 38 -22 70 l-11 58 81 -3 81 -3 3 -44z"/>
<path d="M5126 5993 c-4 -13 -11 -23 -15 -23 -5 0 -14 -20 -21 -45 -7 -25 -17
-45 -21 -45 -5 0 -9 -34 -9 -75 0 -41 4 -75 9 -75 5 0 15 -22 22 -50 7 -27 16
-50 21 -50 4 0 8 -9 8 -20 0 -34 -17 -22 -25 17 -7 38 -41 83 -62 83 -7 0 -13
5 -13 10 0 19 -89 11 -112 -9 -24 -23 -38 -85 -29 -134 7 -43 48 -97 72 -97
11 0 19 -4 19 -10 0 -5 7 -10 15 -10 8 0 15 4 15 9 0 5 9 13 20 16 24 8 28 68
6 91 -20 19 -54 18 -59 -3 -4 -17 -5 -17 -6 0 0 10 5 25 13 33 16 16 66 19 66
5 0 -5 9 -12 19 -16 11 -3 22 -19 26 -34 5 -25 10 -28 44 -28 34 0 40 3 52 33
7 19 19 34 26 34 7 0 13 5 13 10 0 6 15 10 34 10 30 0 35 -4 45 -32 9 -28 9
-31 -3 -15 -19 24 -63 22 -71 -4 -12 -35 3 -89 25 -89 10 0 21 -6 24 -12 5
-10 7 -10 12 0 3 6 14 12 23 12 29 0 59 34 72 81 15 56 6 109 -26 143 -20 21
-33 26 -75 26 -27 0 -50 -4 -50 -9 0 -5 -9 -12 -19 -16 -19 -6 -51 -79 -51
-117 0 -10 -4 -18 -10 -18 -5 0 -10 14 -10 30 0 17 3 30 8 30 4 0 16 29 26 65
10 36 22 65 27 65 5 0 9 18 9 40 0 22 -4 40 -10 40 -5 0 -10 11 -10 24 0 31
-20 89 -35 101 -7 6 -15 19 -17 30 -4 19 -5 19 -12 -2z"/>
<path d="M5738 5763 c6 -3 12 -9 12 -14 0 -5 9 -9 19 -9 11 0 26 -6 33 -14 8
-7 29 -17 46 -21 18 -3 32 -11 32 -16 0 -5 7 -9 15 -9 9 0 18 -7 21 -15 4 -8
10 -15 16 -15 5 0 16 -6 23 -12 8 -7 31 -26 51 -43 35 -29 82 -75 108 -105 8
-8 17 -25 20 -37 4 -13 11 -23 15 -23 4 0 14 -19 21 -42 7 -24 17 -46 23 -50
15 -9 16 -186 1 -196 -6 -4 -14 -23 -18 -42 -3 -20 -15 -43 -26 -53 -11 -9
-20 -23 -20 -30 0 -14 -44 -67 -55 -67 -4 0 -22 -16 -41 -35 -18 -19 -40 -35
-48 -35 -8 0 -18 -9 -21 -20 -3 -11 -12 -20 -20 -20 -7 0 -20 -6 -27 -14 -8
-7 -29 -17 -46 -21 -18 -3 -32 -11 -32 -15 0 -5 -16 -12 -35 -16 -19 -3 -35
-10 -35 -14 0 -4 -16 -11 -35 -14 -19 -4 -35 -11 -35 -16 0 -6 -9 -10 -20 -10
-11 0 -20 -4 -20 -9 0 -5 -25 -12 -55 -16 -30 -3 -55 -10 -55 -15 0 -5 -27
-12 -60 -16 -33 -4 -60 -10 -60 -14 0 -4 -37 -11 -82 -15 -46 -4 -85 -11 -88
-16 -3 -4 -61 -11 -128 -15 -67 -4 -122 -11 -122 -16 0 -4 -130 -8 -290 -8
-159 0 -290 4 -290 9 0 4 -55 11 -122 15 -68 4 -125 11 -128 15 -3 5 -40 12
-82 16 -43 3 -78 10 -78 15 0 4 -27 11 -60 15 -33 4 -60 11 -60 15 0 4 -20 11
-45 14 -25 4 -45 11 -45 17 0 5 -11 9 -25 9 -14 0 -25 4 -25 9 0 5 -16 12 -35
15 -19 4 -35 11 -35 16 0 6 -9 10 -19 10 -11 0 -26 6 -33 14 -8 7 -28 17 -45
20 -17 4 -34 14 -37 22 -3 8 -12 14 -21 14 -8 0 -15 5 -15 10 0 6 -6 10 -14
10 -8 0 -16 7 -20 15 -3 8 -12 15 -19 15 -7 0 -20 11 -27 25 -7 14 -18 25 -23
25 -15 0 -52 44 -66 79 -8 17 -17 31 -21 31 -4 0 -13 21 -20 48 -8 26 -18 50
-24 54 -12 8 -12 198 1 207 5 3 15 27 23 54 7 26 16 47 20 47 5 0 13 13 18 30
6 16 24 42 40 58 16 16 37 41 47 55 9 15 23 27 30 27 8 0 17 9 20 20 3 11 10
20 14 20 4 0 18 9 30 19 13 11 28 22 34 24 7 2 8 8 4 13 -4 5 -11 3 -15 -3 -4
-6 -19 -14 -34 -18 -15 -4 -29 -13 -32 -21 -3 -8 -11 -14 -18 -14 -8 0 -20 -9
-28 -20 -8 -11 -20 -20 -27 -20 -7 0 -17 -9 -23 -20 -6 -11 -15 -20 -20 -20
-8 0 -42 -28 -82 -68 -31 -30 -68 -79 -68 -89 0 -7 -4 -13 -8 -13 -5 0 -15
-12 -23 -27 -8 -16 -19 -34 -26 -41 -7 -7 -17 -39 -24 -72 -6 -33 -16 -60 -20
-60 -5 0 -9 -43 -9 -95 0 -57 4 -95 10 -95 6 0 10 -8 10 -18 0 -30 32 -116 47
-125 7 -4 13 -16 13 -25 0 -10 8 -25 18 -33 9 -9 28 -30 42 -47 14 -17 31 -31
38 -32 7 0 18 -11 24 -25 6 -14 17 -25 25 -25 7 0 16 -7 19 -15 4 -8 13 -15
20 -15 8 0 17 -7 20 -15 4 -8 12 -15 19 -15 8 0 20 -6 27 -14 8 -7 25 -17 38
-21 13 -4 30 -14 38 -21 7 -8 22 -14 33 -14 10 0 19 -4 19 -10 0 -5 7 -10 15
-10 8 0 15 -4 15 -9 0 -5 18 -12 40 -16 22 -4 40 -10 40 -15 0 -5 18 -11 40
-15 22 -4 40 -10 40 -15 0 -4 23 -11 50 -15 28 -4 50 -10 50 -15 0 -4 30 -11
68 -15 37 -4 69 -11 72 -16 3 -4 43 -11 88 -15 45 -4 82 -11 82 -15 0 -5 29
-9 64 -9 37 0 66 -5 68 -11 5 -15 631 -15 636 0 2 6 29 11 63 11 32 0 59 4 59
9 0 4 42 11 92 15 51 4 95 11 98 16 3 5 33 12 68 16 34 3 62 10 62 14 0 5 23
11 50 15 28 4 50 11 50 16 0 4 23 11 50 15 28 4 50 10 50 14 0 5 18 11 40 15
22 4 40 11 40 16 0 5 7 9 16 9 8 0 22 7 30 15 9 8 24 15 35 15 10 0 19 4 19 9
0 5 11 12 25 15 14 4 25 10 25 15 0 5 14 12 30 16 17 4 30 11 30 16 0 5 11 11
25 15 14 3 25 10 25 15 0 5 6 9 14 9 15 0 76 52 151 130 65 66 75 78 85 105 5
14 14 25 19 25 6 0 16 18 22 40 7 22 15 40 20 40 4 0 13 38 20 85 10 69 10
101 0 170 -7 47 -16 85 -20 85 -4 0 -13 16 -20 36 -7 19 -27 51 -44 70 -18 18
-43 47 -57 64 -13 16 -29 30 -35 30 -7 0 -18 11 -25 25 -7 14 -19 25 -26 25
-6 0 -26 14 -44 30 -18 17 -38 30 -46 30 -8 0 -14 4 -14 9 0 5 -14 13 -32 16
-17 4 -38 14 -46 21 -7 8 -22 14 -32 14 -10 0 -20 4 -22 9 -1 5 -16 11 -33 13
-16 3 -24 3 -17 1z"/>
<path d="M5087 5497 c-9 -23 10 -40 43 -40 31 0 50 15 50 41 0 17 -86 16 -93
-1z"/>
<path d="M3384 5387 c-2 -7 -3 -85 -2 -172 l3 -160 43 -3 42 -3 0 50 0 51 40
0 c22 0 40 5 40 11 0 10 23 -13 75 -75 26 -31 36 -36 72 -36 24 0 43 4 43 9 0
15 -34 75 -47 84 -18 11 -16 27 3 27 39 0 59 137 27 190 -21 36 -43 40 -205
40 -96 0 -130 -3 -134 -13z m266 -107 l0 -30 -90 0 -90 0 0 30 0 30 90 0 90 0
0 -30z"/>
<path d="M3846 5393 c-11 -3 -25 -11 -33 -18 -7 -7 -18 -15 -25 -17 -10 -4
-13 -38 -13 -133 0 -95 3 -129 13 -133 7 -2 20 -11 29 -20 14 -14 39 -17 148
-17 122 0 132 1 155 23 24 22 25 28 25 147 0 119 -1 125 -25 147 -22 21 -35
23 -140 25 -63 1 -124 -1 -134 -4z m210 -100 c16 -21 18 -91 4 -127 -9 -25
-13 -26 -89 -26 -111 0 -111 0 -111 76 0 38 5 71 13 79 8 10 36 14 91 15 64 0
81 -3 92 -17z"/>
<path d="M4256 5393 c-11 -3 -25 -11 -33 -18 -7 -7 -18 -15 -25 -17 -10 -4
-13 -38 -13 -133 0 -95 3 -129 13 -133 7 -2 20 -11 29 -20 14 -14 39 -17 146
-17 95 0 131 3 135 13 2 6 10 12 17 12 10 0 35 67 35 94 0 3 -20 6 -44 6 -35
0 -45 -4 -49 -20 -5 -18 -13 -20 -89 -20 -45 0 -88 4 -95 8 -7 4 -13 34 -14
69 -3 84 8 93 110 93 78 0 81 -1 87 -25 5 -21 12 -25 44 -25 21 0 40 5 42 13
8 22 -13 97 -27 97 -7 0 -15 6 -17 12 -5 13 -213 22 -252 11z"/>
<path d="M4590 5230 l0 -170 53 -1 c28 -1 96 -2 149 -3 l98 -1 0 42 0 42 -107
3 -108 3 -3 128 -3 127 -39 0 -40 0 0 -170z"/>
<path d="M5066 5385 c-9 -9 -16 -23 -16 -30 0 -7 -6 -20 -13 -27 -8 -7 -20
-31 -27 -53 -7 -22 -18 -43 -25 -47 -7 -4 -16 -24 -19 -43 -4 -19 -11 -35 -16
-35 -4 0 -11 -13 -15 -30 -4 -16 -14 -34 -23 -40 -15 -8 -15 -11 -2 -20 8 -5
32 -10 53 -10 33 0 39 4 48 30 6 17 15 30 20 31 5 0 43 0 84 0 41 0 79 0 84 0
5 -1 14 -14 20 -31 9 -28 13 -30 60 -30 39 0 51 4 51 15 0 8 -4 15 -9 15 -5 0
-12 14 -16 31 -4 17 -13 33 -20 35 -7 3 -19 28 -25 55 -7 27 -15 49 -19 49 -3
0 -12 15 -20 33 -8 17 -17 34 -21 37 -3 3 -11 21 -16 40 -9 33 -12 35 -56 38
-32 2 -50 -2 -62 -13z m69 -124 c3 -16 13 -32 21 -35 29 -11 12 -26 -31 -26
-50 0 -49 -2 -33 51 13 46 34 51 43 10z"/>
<path d="M5350 5224 l0 -175 38 3 37 3 5 105 5 105 23 -25 c12 -13 22 -27 22
-32 0 -4 5 -8 10 -8 11 0 18 -7 100 -99 41 -46 49 -51 87 -51 l43 0 0 175 0
175 -40 0 -40 0 0 -112 c-1 -82 -3 -108 -11 -95 -14 23 -55 67 -63 67 -8 0
-42 36 -76 81 -41 54 -50 59 -96 59 l-44 0 0 -176z"/>
<path d="M5760 5225 l0 -177 158 3 c152 4 158 5 182 29 24 24 25 30 25 145 0
115 -1 121 -25 145 -24 24 -30 25 -182 29 l-158 3 0 -177z m266 71 c9 -10 14
-37 14 -80 0 -77 -2 -79 -120 -74 l-75 3 -3 83 -3 82 86 0 c62 0 91 -4 101
-14z"/>
<path d="M6047 4670 c-6 -16 -15 -30 -19 -30 -4 0 -8 -7 -8 -15 0 -8 3 -15 8
-15 4 0 13 -13 20 -30 8 -16 20 -30 28 -30 8 0 14 -4 14 -10 0 -18 20 -11 50
19 24 22 30 37 30 69 0 52 -20 72 -72 72 -35 0 -41 -4 -51 -30z m93 0 c25 -25
26 -53 3 -80 -34 -39 -93 -15 -93 37 0 30 27 62 53 62 9 1 26 -8 37 -19z"/>
<path d="M6073 4664 c-17 -8 -16 -52 1 -70 13 -12 15 -12 18 3 3 15 4 15 20 0
15 -16 16 -14 15 26 -2 34 -6 42 -22 44 -11 1 -26 -1 -32 -3z m47 -19 c0 -8
-7 -15 -15 -15 -8 0 -15 7 -15 15 0 8 7 15 15 15 8 0 15 -7 15 -15z"/>
<path d="M7010 4540 c0 -5 -11 -10 -25 -10 -31 0 -39 -18 -31 -65 l7 -35 102
0 c90 0 105 2 120 20 9 11 17 29 17 40 0 24 -42 70 -48 52 -4 -14 -32 -16 -32
-2 0 6 -25 10 -55 10 -30 0 -55 -4 -55 -10z"/>
<path d="M3490 4000 c0 -5 -9 -10 -19 -10 -11 0 -26 -6 -33 -13 -7 -7 -21 -16
-30 -20 -10 -3 -18 -11 -18 -17 0 -5 -7 -10 -15 -10 -8 0 -15 -4 -15 -8 0 -5
-8 -17 -18 -28 -10 -10 -25 -34 -32 -51 -8 -18 -18 -33 -21 -33 -4 0 -12 -35
-19 -79 -12 -78 -2 -206 17 -220 11 -8 33 -49 33 -61 0 -13 32 -45 53 -53 9
-3 17 -11 17 -17 0 -5 6 -10 14 -10 8 0 22 -8 32 -17 14 -15 36 -18 119 -18
83 0 105 3 119 18 10 9 24 17 32 17 8 0 14 5 14 10 0 6 8 14 18 17 22 9 41 33
42 54 0 9 6 19 14 22 7 3 17 18 21 34 3 15 12 31 18 35 16 10 17 236 1 246 -6
4 -17 24 -24 46 -7 21 -20 47 -29 58 -51 62 -85 90 -117 95 -18 3 -34 10 -34
14 0 14 -58 10 -64 -3 -5 -10 -7 -10 -12 0 -7 14 -64 17 -64 2z m120 -139 c0
-5 14 -12 30 -16 17 -4 30 -10 30 -14 0 -4 8 -16 18 -27 55 -59 57 -223 3
-286 -8 -10 -21 -18 -27 -18 -7 0 -14 -7 -18 -15 -3 -8 -12 -15 -21 -15 -8 0
-15 -4 -15 -10 0 -6 -26 -10 -58 -10 -52 0 -60 3 -72 25 -7 14 -19 25 -27 25
-7 0 -19 12 -26 28 -6 15 -17 30 -23 34 -28 18 -28 182 -1 211 7 6 18 24 26
39 7 14 24 29 37 32 13 4 24 11 24 16 0 6 27 10 60 10 33 0 60 -4 60 -9z"/>
<path d="M4290 4000 c0 -6 -30 -10 -70 -10 -54 0 -72 -4 -76 -15 -4 -8 -15
-15 -25 -15 -11 0 -22 -7 -25 -15 -4 -8 -10 -15 -15 -15 -15 0 -46 -37 -65
-77 -10 -21 -22 -41 -27 -44 -25 -17 -23 -281 1 -299 4 -3 16 -23 27 -45 11
-22 28 -47 37 -55 38 -33 63 -50 74 -50 7 0 14 -6 17 -12 5 -17 205 -18 215
-1 4 6 20 15 35 18 15 4 27 11 27 16 0 5 8 13 18 16 22 9 41 33 42 54 0 9 6
19 14 22 7 3 17 18 21 34 3 15 12 31 18 35 16 10 17 236 1 246 -6 4 -17 24
-24 46 -7 21 -20 48 -29 59 -35 43 -63 67 -76 67 -8 0 -15 4 -15 9 0 5 -11 12
-25 15 -14 4 -25 11 -25 16 0 6 -11 10 -25 10 -14 0 -25 -4 -25 -10z m36 -142
c47 -39 74 -69 74 -82 0 -8 6 -16 13 -18 8 -3 12 -32 12 -98 0 -66 -4 -95 -12
-97 -7 -3 -13 -11 -13 -19 0 -19 -56 -74 -75 -74 -8 0 -15 -4 -15 -10 0 -5
-20 -10 -45 -10 -25 0 -45 4 -45 9 0 5 -11 12 -25 15 -14 4 -25 11 -25 16 0 6
-6 10 -13 10 -22 0 -67 66 -67 100 0 11 -4 20 -10 20 -5 0 -10 20 -10 45 0 25
4 45 9 45 5 0 11 17 15 38 6 42 40 86 74 97 12 3 22 11 22 16 0 14 119 11 136
-3z"/>
<path d="M5770 4000 c0 -5 -11 -10 -24 -10 -14 0 -31 -6 -38 -13 -7 -7 -21
-16 -30 -20 -10 -3 -18 -11 -18 -17 0 -5 -5 -10 -11 -10 -17 0 -69 -63 -69
-84 0 -10 -8 -25 -17 -32 -37 -26 -26 -323 13 -338 7 -3 14 -14 14 -24 0 -11
12 -28 26 -38 14 -10 35 -27 46 -36 12 -10 27 -18 34 -18 7 0 14 -6 17 -12 5
-17 204 -18 215 -2 4 6 17 14 30 18 30 10 92 70 92 89 0 9 7 20 15 24 8 5 21
32 27 61 7 29 16 52 20 52 5 0 8 34 8 75 0 41 -4 75 -9 75 -5 0 -12 23 -16 51
-4 29 -13 53 -21 56 -8 3 -14 11 -14 19 0 11 -22 40 -59 79 -25 25 -41 34 -75
40 -20 4 -36 11 -36 16 0 5 -11 9 -25 9 -14 0 -25 -4 -25 -10 0 -5 -9 -10 -20
-10 -11 0 -20 5 -20 10 0 6 -7 10 -15 10 -8 0 -15 -4 -15 -10z m110 -140 c0
-5 7 -10 15 -10 17 0 75 -54 75 -70 0 -6 7 -19 16 -27 13 -13 15 -33 12 -100
-1 -46 -8 -87 -13 -91 -6 -4 -16 -19 -22 -34 -7 -16 -17 -28 -23 -28 -6 0 -21
-11 -34 -25 -19 -21 -32 -25 -79 -25 -39 0 -56 4 -61 15 -3 8 -10 15 -16 15
-22 0 -68 57 -81 98 -7 23 -16 42 -21 42 -4 0 -8 20 -8 45 0 25 5 45 10 45 6
0 10 9 10 20 0 44 54 120 86 120 8 0 14 5 14 10 0 6 27 10 60 10 33 0 60 -4
60 -10z"/>
<path d="M7080 4001 c0 -5 -18 -11 -40 -15 -22 -3 -40 -11 -40 -16 0 -6 -7
-10 -15 -10 -13 0 -27 -12 -83 -73 -12 -14 -28 -40 -34 -59 -6 -18 -16 -36
-22 -40 -15 -10 -15 -246 0 -256 6 -4 16 -23 23 -43 12 -38 61 -99 78 -99 6 0
13 -7 17 -15 3 -8 12 -15 20 -15 8 0 16 -6 19 -12 6 -20 218 -18 239 2 9 8 26
22 38 30 13 8 30 23 39 34 9 10 22 24 29 32 7 7 18 28 24 46 6 18 15 36 21 39
25 17 25 261 -1 278 -5 3 -13 17 -17 31 -4 14 -15 32 -24 41 -9 9 -27 30 -40
47 -13 18 -28 32 -33 32 -5 0 -16 7 -24 15 -9 8 -29 15 -45 15 -16 0 -29 5
-29 10 0 14 -47 12 -54 -2 -5 -10 -7 -10 -12 0 -6 14 -34 17 -34 3z m100 -141
c0 -5 5 -10 12 -10 21 0 84 -76 96 -117 26 -87 9 -168 -48 -222 -22 -20 -46
-42 -54 -48 -18 -15 -106 -17 -106 -3 0 6 -7 10 -15 10 -8 0 -35 20 -60 45
-51 52 -60 84 -53 186 5 68 14 85 66 132 7 7 18 17 25 24 15 15 137 17 137 3z"/>
</g>
</svg>
