<?xml version="1.0" standalone="no"?>
<!DOCTYPE svg PUBLIC "-//W3C//DTD SVG 20010904//EN"
 "http://www.w3.org/TR/2001/REC-SVG-20010904/DTD/svg10.dtd">
<svg version="1.0" xmlns="http://www.w3.org/2000/svg"
 width="2048.000000pt" height="2048.000000pt" viewBox="0 0 2048.000000 2048.000000"
 preserveAspectRatio="xMidYMid meet">

<g transform="translate(0.000000,2048.000000) scale(0.100000,-0.100000)"
fill="#000000" stroke="none">
<path d="M2119 14673 c-8 -1 -129 -4 -269 -5 -224 -3 -259 -5 -283 -21 -14 -9
-34 -18 -44 -20 -30 -5 -53 -21 -118 -87 -35 -34 -77 -88 -94 -119 -66 -124
-61 125 -61 -3141 0 -2012 3 -2977 10 -3002 16 -55 69 -120 120 -145 40 -21
58 -23 197 -23 l152 0 3 -557 c4 -549 4 -559 26 -618 30 -81 85 -150 157 -200
100 -68 136 -75 405 -76 259 -1 301 5 354 52 45 39 62 86 75 203 24 213 69
367 156 535 180 347 487 588 822 646 75 13 533 15 3617 15 l3531 0 -32 -25
c-46 -37 -173 -190 -245 -297 -120 -179 -218 -413 -252 -599 -26 -143 -38
-333 -26 -381 40 -148 226 -199 334 -91 40 40 46 61 62 213 24 225 83 425 173
579 153 261 393 462 657 550 142 47 212 53 599 49 407 -5 433 -9 620 -102 407
-203 663 -587 720 -1084 16 -139 27 -172 67 -208 61 -57 20 -54 873 -54 760 0
787 1 824 20 80 40 103 88 121 246 38 340 154 590 375 809 189 187 420 307
683 357 104 20 399 17 500 -5 393 -86 716 -325 901 -667 72 -135 133 -345 146
-505 12 -139 43 -201 119 -236 37 -17 70 -19 376 -19 355 0 384 3 484 50 75
36 172 132 211 210 70 138 66 41 63 1557 l-3 1368 -28 100 c-15 55 -43 136
-62 179 -19 44 -33 82 -31 84 2 2 7 -6 11 -17 3 -12 10 -21 16 -21 5 0 -3 25
-18 55 -15 30 -29 53 -31 51 -2 -3 2 -14 8 -26 6 -12 10 -24 7 -26 -8 -8 -138
290 -132 304 2 7 1 11 -4 8 -12 -8 -355 760 -345 775 4 7 3 10 -3 6 -6 -4 -76
143 -164 340 -181 407 -165 368 -149 358 8 -5 11 -3 8 6 -3 8 -10 13 -16 12
-5 -1 -13 4 -16 13 -3 8 -2 12 4 9 6 -3 10 -2 10 2 0 17 -71 128 -103 161 -35
37 -95 83 -83 64 11 -18 -1 -14 -34 10 -25 18 -30 29 -30 64 0 63 -28 209 -56
292 -13 40 -21 78 -18 84 5 7 2 8 -6 3 -10 -6 -12 -4 -7 9 4 9 3 15 -2 12 -11
-7 -33 43 -25 56 4 7 2 8 -4 4 -7 -4 -19 9 -31 31 -10 21 -42 69 -70 106 -53
70 -60 83 -38 71 7 -4 9 -3 4 2 -5 5 -14 9 -20 9 -7 1 -11 6 -10 13 2 7 -1 11
-6 9 -5 -1 -39 30 -77 69 -89 90 -176 163 -289 237 -49 33 -89 63 -88 68 2 4
-5 5 -14 2 -11 -4 -14 -3 -9 5 5 8 1 10 -10 5 -12 -4 -15 -3 -10 6 4 6 3 10
-2 9 -16 -5 -151 65 -145 75 3 6 1 7 -5 4 -15 -10 -43 3 -35 16 4 6 0 8 -10 4
-10 -3 -17 -2 -17 3 0 5 -7 6 -17 3 -12 -5 -14 -3 -8 7 5 8 4 11 -2 7 -6 -4
-48 9 -94 27 -46 19 -103 40 -126 46 -23 7 -40 17 -37 21 3 5 -3 6 -12 2 -13
-5 -15 -3 -9 7 5 9 4 11 -4 6 -6 -4 -25 -4 -43 -1 -23 6 -27 9 -17 17 10 7 5
8 -14 3 -18 -3 -26 -2 -23 4 4 6 -4 8 -20 5 -14 -3 -23 -1 -20 4 3 5 -7 7 -22
5 -22 -4 -24 -2 -12 7 12 9 7 10 -20 5 -26 -5 -31 -4 -20 4 11 8 6 10 -20 5
-27 -4 -31 -3 -20 5 11 8 7 9 -19 4 -24 -4 -32 -3 -27 5 4 7 -2 9 -20 6 -17
-3 -23 -1 -19 7 5 7 1 9 -12 5 -10 -3 -84 5 -163 18 -80 13 -194 30 -253 37
-60 6 -104 15 -99 18 11 6 -206 15 -378 16 -87 0 -112 -4 -145 -21 -45 -23
-80 -69 -95 -123 -14 -50 -14 -5857 0 -5866 6 -3 10 -10 10 -16 0 -6 -329 -8
-872 -7 -576 2 -872 6 -870 13 1 7 253 10 730 10 922 0 990 1 974 18 -10 9
-197 13 -855 14 l-842 3 -82 94 c-45 52 -92 101 -105 110 -21 15 37 16 702 16
682 0 727 2 765 19 45 20 91 69 112 118 11 27 13 537 13 3028 l0 2996 -21 62
c-11 34 -34 83 -51 109 -37 58 -123 138 -177 165 -22 11 -38 23 -35 26 3 3
-10 10 -28 16 -23 7 -1777 12 -6003 16 -3283 3 -6085 7 -6226 8 -140 1 -262 1
-270 0z m12463 -53 c61 -19 143 -65 167 -94 7 -8 -29 7 -80 33 l-91 46 -6461
3 c-5884 2 -6467 1 -6516 -14 -31 -9 -78 -28 -106 -42 -69 -37 -74 -38 -40 -7
37 33 112 72 162 84 22 5 2779 9 6469 10 6379 1 6432 1 6496 -19z m-79 -361
c33 -15 47 -50 45 -107 -1 -39 -2 -41 -5 -12 -2 19 -6 42 -9 50 -5 13 -6 13
-14 0 -4 -8 -10 -1275 -12 -2814 -2 -2116 -6 -2803 -15 -2815 -10 -15 -557
-16 -6408 -16 -5674 0 -6397 2 -6405 15 -6 9 -10 1083 -10 2815 0 1841 -4
2803 -10 2809 -7 7 -10 -945 -10 -2821 0 -1998 3 -2834 11 -2838 6 -4 8 -13 5
-21 -5 -12 921 -14 6432 -13 3540 0 6431 3 6424 6 -6 2 -9 10 -5 16 3 6 12 36
19 66 l13 56 -2 -73 c-1 -39 2 -73 7 -75 79 -26 -159 -27 -6464 -27 -3975 0
-6461 4 -6465 9 -3 5 -1 12 5 16 7 4 10 940 10 2866 0 2005 3 2866 11 2880 6
11 20 24 32 29 34 14 12790 13 12820 -1z m44 -231 c-2 -13 -4 -5 -4 17 -1 22
1 32 4 23 2 -10 2 -28 0 -40z m1153 -193 c633 -51 1022 -148 1435 -358 122
-62 281 -163 306 -194 17 -20 14 -19 -71 38 -216 142 -545 284 -823 355 -293
74 -655 125 -991 140 -118 6 -147 4 -180 -10 -22 -9 -40 -15 -42 -13 -8 7 15
28 46 41 44 19 91 19 320 1z m122 -380 c595 -63 1040 -202 1372 -429 107 -72
246 -207 305 -294 70 -103 137 -262 111 -262 -5 0 -10 6 -10 13 0 9 -199 11
-967 9 -881 -2 -968 -4 -985 -19 -17 -16 -18 1 -18 490 l0 507 28 0 c15 0 89
-7 164 -15z m1813 -1020 c0 -7 -344 -11 -1007 -13 -555 -1 -1008 2 -1008 6 0
5 3 12 7 15 11 12 2008 3 2008 -8z m572 -257 c38 -52 63 -95 63 -107 0 -3 -14
17 -31 44 -17 28 -54 74 -83 104 -38 41 -43 49 -19 32 17 -12 49 -45 70 -73z
m-449 -134 c28 -14 72 -48 96 -75 43 -48 96 -142 96 -171 0 -11 -147 -13 -802
-13 -612 0 -802 -3 -805 -12 -3 -7 -11 -9 -20 -6 -12 5 -14 3 -8 -7 6 -10 3
-12 -13 -8 -14 4 -20 2 -15 -5 4 -7 0 -8 -11 -4 -11 5 -15 3 -10 -5 5 -8 2 -9
-9 -5 -10 4 -16 2 -14 -5 1 -6 -4 -13 -12 -16 -9 -3 -11 0 -6 9 5 8 4 11 -1 6
-5 -5 -9 -14 -9 -20 0 -5 -6 -12 -14 -15 -9 -3 -11 0 -6 9 5 8 6 12 2 9 -3 -3
-5 -9 -5 -13 -1 -5 -19 -28 -41 -52 -48 -52 -86 -124 -106 -202 -22 -85 -22
-1128 0 -1222 31 -129 122 -245 238 -300 72 -34 142 -46 552 -91 154 -17 420
-48 590 -70 171 -22 452 -55 625 -75 408 -46 766 -91 779 -99 11 -7 15 -1584
4 -1651 -3 -19 -9 -32 -14 -29 -5 3 -9 2 -9 -3 0 -14 -792 -4 -809 10 -12 10
-13 9 -1 -13 7 -14 -36 26 -95 88 -99 104 -264 241 -336 277 -16 9 -27 20 -24
25 3 5 -5 14 -17 20 -22 11 -22 10 -4 -4 25 -20 13 -20 -25 -1 -16 9 -27 20
-24 25 4 6 -1 7 -11 3 -12 -4 -15 -3 -10 5 5 8 1 10 -10 5 -12 -4 -15 -3 -10
5 5 8 1 10 -10 5 -12 -4 -15 -3 -10 5 4 7 2 10 -6 7 -7 -3 -54 11 -103 31 -91
37 -120 52 -75 40 17 -5 20 -4 10 2 -22 14 -79 25 -60 12 17 -11 10 -13 -14
-4 -9 3 -14 10 -11 14 7 12 -41 21 -72 14 -19 -4 -24 -3 -15 4 18 12 -39 24
-76 16 -22 -4 -24 -3 -12 6 12 9 11 11 -10 9 -14 -1 -33 1 -43 6 -9 4 -33 5
-51 3 -20 -2 -32 0 -29 6 11 17 -402 -1 -507 -23 -158 -32 -193 -43 -178 -53
9 -6 6 -7 -9 -3 -31 9 -71 -4 -52 -16 9 -5 10 -9 2 -9 -6 0 -20 -3 -30 -6 -15
-5 -15 -4 -3 5 19 13 1 14 -20 1 -8 -5 -11 -10 -6 -10 6 0 -48 -29 -120 -64
-121 -60 -274 -159 -274 -178 0 -4 -4 -8 -10 -8 -7 0 -10 658 -10 1955 l0
1955 1038 0 1038 0 52 -26z m209 -301 c4 -10 -172 -13 -799 -15 l-803 -3 -64
-27 c-35 -16 -66 -26 -68 -24 -5 5 76 51 107 61 55 18 185 21 889 20 569 0
735 -3 738 -12z m187 -410 c13 -27 69 -151 124 -278 55 -126 121 -277 147
-335 76 -168 315 -712 315 -716 0 -2 -7 -4 -15 -4 -8 0 -15 4 -15 9 0 10 18 8
-525 75 -714 89 -1083 134 -1370 166 -271 30 -324 37 -359 47 -13 4 -17 1 -12
-8 4 -8 0 -5 -8 5 -14 18 -16 82 -16 541 0 392 3 524 12 533 9 9 213 12 855
12 l843 0 24 -47z m-1459 -1113 c143 -16 427 -50 630 -75 204 -25 469 -57 590
-70 479 -55 838 -105 850 -117 14 -15 -73 -7 -490 46 -522 65 -1244 151 -1515
181 -244 26 -330 41 -330 56 0 11 -38 14 265 -21z m-2148 -412 c-3 -8 -6 -5
-6 6 -1 11 2 17 5 13 3 -3 4 -12 1 -19z m0 -840 c-3 -7 -5 -2 -5 12 0 14 2 19
5 13 2 -7 2 -19 0 -25z m0 -161 c-2 -23 -3 -1 -3 48 0 50 1 68 3 42 2 -26 2
-67 0 -90z m0 -159 c-3 -7 -5 -2 -5 12 0 14 2 19 5 13 2 -7 2 -19 0 -25z
m2398 -183 c208 -36 434 -122 598 -228 102 -66 117 -85 20 -25 -528 324 -1244
327 -1770 6 -108 -66 -109 -55 -1 18 304 204 768 296 1153 229z m-1272 -326
c-11 -12 -27 -19 -34 -17 -9 3 -3 10 16 20 41 22 43 21 18 -3z m-12842 -104
c-222 -234 -382 -545 -452 -879 -12 -58 -26 -106 -31 -106 -4 0 -8 5 -8 10 0
6 -33 10 -80 10 -66 0 -83 3 -99 19 -18 18 -20 18 -24 3 -3 -9 -5 216 -6 501
l-1 517 386 0 387 0 -72 -75z m16009 -149 c0 -3 -4 -8 -10 -11 -5 -3 -10 -1
-10 4 0 6 5 11 10 11 6 0 10 -2 10 -4z m10 -41 c0 -13 -52 -15 -432 -13 -334
2 -432 6 -436 16 -3 9 88 12 432 12 382 0 436 -2 436 -15z m-3760 -363 c0 -5
-18 -63 -39 -128 -21 -65 -47 -163 -57 -216 -13 -73 -20 -93 -28 -82 -9 12
-98 14 -553 16 -476 3 -543 1 -546 -12 -2 -8 -7 8 -11 35 -14 96 -49 231 -78
304 -23 59 -26 76 -16 82 17 11 1328 11 1328 1z m3733 0 c18 -5 19 -16 15
-178 -3 -156 -5 -175 -24 -201 -11 -15 -29 -28 -40 -29 -10 0 -106 -1 -211 -2
-173 -2 -193 -4 -193 -19 0 -38 -12 1 -34 108 -19 95 -59 227 -90 301 -6 14 0
17 36 21 57 6 518 5 541 -1z m-13 -443 c0 -5 -16 -17 -35 -25 -47 -19 -439
-21 -433 -1 4 9 61 13 226 17 121 3 224 8 228 13 10 10 14 9 14 -4z m-16555
-11 c92 2 125 -3 125 -19 0 -5 -48 -9 -109 -9 -95 0 -112 3 -132 21 l-24 20
25 -7 c14 -4 65 -7 115 -6z m12735 -13 c11 -13 -53 -15 -564 -15 -317 0 -576
4 -576 8 0 5 3 12 7 15 3 4 257 7 563 7 483 0 559 -2 570 -15z"/>
<path d="M9588 13723 c-127 -212 -178 -355 -178 -492 0 -126 19 -181 140 -411
56 -107 78 -189 87 -326 6 -89 7 -95 27 -92 19 3 22 12 27 98 8 123 30 204 79
299 100 191 131 261 146 331 24 114 7 227 -59 388 -23 55 -143 268 -179 315
-13 17 -21 7 -90 -110z"/>
<path d="M11430 13217 c740 -221 1262 -497 1626 -861 225 -226 345 -439 389
-694 19 -107 19 -168 0 -273 -27 -157 -98 -323 -195 -455 -61 -83 -210 -234
-312 -316 -552 -441 -1634 -794 -2938 -957 -741 -93 -1534 -128 -2275 -101
-1501 56 -2745 307 -3556 716 -542 273 -885 625 -1005 1029 -36 120 -45 335
-20 468 65 347 325 706 726 1004 156 116 213 154 365 240 61 35 106 63 102 63
-15 0 -149 -61 -297 -135 -616 -308 -1051 -672 -1299 -1087 -196 -327 -242
-696 -131 -1030 192 -574 830 -1076 1808 -1424 831 -295 1848 -463 3057 -505
1616 -56 3297 216 4469 722 927 401 1515 936 1661 1512 65 257 52 463 -45 712
-141 359 -481 694 -985 969 -184 100 -379 182 -638 268 -194 64 -501 149 -530
147 -6 -1 4 -6 23 -12z"/>
<path d="M9009 13006 c-277 -74 -343 -434 -120 -657 77 -77 155 -112 246 -113
60 -1 77 3 118 27 56 33 84 73 93 135 24 159 -145 265 -240 151 -27 -32 -37
-101 -16 -114 6 -3 10 -12 10 -18 0 -7 -12 1 -25 16 -34 38 -35 119 -2 168 44
66 143 93 239 65 103 -30 168 -98 210 -221 11 -33 22 -50 32 -49 63 3 59 -2
53 77 -18 204 -113 383 -254 477 -95 62 -235 86 -344 56z"/>
<path d="M10100 13005 c-124 -35 -237 -134 -303 -267 -44 -89 -77 -210 -77
-285 l0 -53 40 0 c38 0 40 2 51 42 18 69 45 112 99 161 64 58 131 81 211 74
73 -6 123 -36 150 -90 24 -47 22 -111 -6 -153 -20 -32 -30 -26 -14 9 32 71
-36 157 -124 157 -44 0 -97 -36 -119 -80 -22 -43 -24 -140 -4 -178 35 -67 106
-106 197 -106 203 -1 392 224 377 447 -11 144 -79 251 -195 304 -71 33 -200
41 -283 18z"/>
<path d="M9527 12358 c-17 -9 -57 -70 -57 -86 0 -6 32 -28 71 -48 38 -20 83
-53 99 -72 l28 -34 16 31 c12 23 39 42 107 76 l90 46 -20 27 c-52 69 -39 64
-185 67 -74 1 -141 -2 -149 -7z"/>
<path d="M3506 11998 c-2 -7 -3 -238 -3 -513 l2 -500 153 -3 152 -3 0 166 0
165 180 0 c141 0 181 -3 187 -14 4 -7 66 -82 137 -165 l129 -151 184 0 c100 0
183 2 183 5 0 3 -63 80 -140 171 -77 92 -137 170 -135 174 3 4 22 10 44 14 64
10 131 63 166 130 29 57 30 65 30 185 0 110 -3 132 -23 176 -42 91 -98 132
-214 160 -86 20 -1026 22 -1032 3z m863 -244 c48 -4 70 -12 87 -29 38 -38 30
-118 -15 -152 -12 -9 -98 -12 -323 -13 l-308 0 0 93 c0 52 2 96 4 98 7 7 488
10 555 3z"/>
<path d="M5140 11992 c-131 -35 -203 -98 -237 -210 -27 -85 -26 -500 0 -586
25 -81 98 -154 187 -186 63 -24 75 -24 433 -28 238 -2 387 1 420 8 121 25 201
83 246 180 25 54 26 61 29 298 3 222 2 249 -17 311 -29 96 -69 146 -144 182
-34 16 -86 33 -116 39 -30 6 -202 10 -395 9 -289 0 -351 -3 -406 -17z m717
-255 c59 -32 68 -62 68 -242 0 -141 -2 -164 -20 -192 -36 -60 -53 -63 -357
-63 -256 0 -275 1 -306 20 -52 32 -62 69 -62 235 0 195 18 235 111 255 24 5
154 8 289 7 212 -2 249 -5 277 -20z"/>
<path d="M6588 11995 c-128 -32 -197 -87 -240 -194 -22 -53 -23 -70 -23 -301
1 -300 8 -334 88 -415 35 -34 73 -60 112 -76 60 -24 61 -24 450 -24 379 0 392
1 455 23 142 49 210 156 210 329 l0 44 -147 -3 -148 -3 -6 -38 c-8 -48 -44
-86 -95 -97 -51 -12 -467 -12 -518 0 -22 5 -53 23 -70 39 l-31 31 -3 174 c-5
272 -9 269 319 274 319 5 375 -9 399 -100 l11 -38 144 0 145 0 0 40 c0 92 -43
212 -92 256 -35 32 -100 62 -170 79 -87 20 -705 20 -790 0z"/>
<path d="M7757 12003 c-4 -3 -7 -235 -7 -515 l0 -508 543 2 542 3 -3 125 c-2
69 -6 127 -8 129 -2 2 -176 5 -387 6 l-382 1 -3 382 -2 382 -143 0 c-79 0
-147 -3 -150 -7z"/>
<path d="M9384 11908 c-32 -57 -118 -211 -192 -343 -183 -325 -322 -576 -322
-581 0 -2 75 -4 168 -4 l167 0 50 93 50 92 310 0 309 0 51 -90 50 -90 173 -3
c94 -1 172 -1 172 2 0 2 -31 57 -68 123 -37 65 -166 295 -286 511 l-219 392
-178 0 -178 0 -57 -102z m282 -255 c26 -49 66 -123 90 -165 l43 -78 -184 0
-183 0 90 165 c49 91 91 165 93 165 2 0 25 -39 51 -87z"/>
<path d="M10440 11495 l0 -515 145 0 145 0 0 331 0 332 48 -43 c26 -24 181
-173 344 -332 l297 -288 165 0 166 0 0 515 0 515 -150 0 -150 0 0 -327 0 -328
-122 121 c-68 66 -221 213 -340 327 l-217 207 -165 0 -166 0 0 -515z"/>
<path d="M11880 11495 l0 -515 488 0 c395 0 499 3 550 15 124 29 194 82 237
177 26 58 29 76 36 238 15 350 -27 479 -176 549 -100 47 -147 51 -657 51
l-478 0 0 -515z m951 232 c51 -34 61 -77 57 -245 -3 -134 -5 -154 -24 -179
-39 -52 -46 -53 -376 -53 l-308 0 0 248 c0 137 2 251 4 253 2 2 143 2 313 -1
273 -4 311 -7 334 -23z"/>
<path d="M13022 9936 c-88 -29 -165 -116 -178 -202 -13 -90 35 -197 109 -243
161 -99 379 15 381 199 0 72 -18 124 -63 173 -62 69 -166 99 -249 73z m127
-56 c73 -21 124 -95 124 -180 0 -232 -337 -259 -369 -30 -20 144 105 250 245
210z"/>
<path d="M12984 9817 c-2 -7 -3 -67 -2 -133 l3 -119 28 -3 c27 -3 27 -3 27 53
0 53 1 56 23 53 14 -2 35 -22 57 -55 32 -50 63 -67 83 -47 8 8 -19 62 -44 90
-19 20 -19 21 11 42 38 29 41 72 5 107 -22 22 -32 25 -105 25 -57 0 -82 -4
-86 -13z m151 -67 c0 -23 -4 -25 -47 -28 -48 -3 -48 -3 -48 28 0 31 0 31 48
28 43 -3 47 -5 47 -28z"/>
<path d="M16301 9502 c-56 -2 -88 -8 -98 -17 -8 -8 -20 -15 -27 -15 -7 0 -26
-15 -44 -32 -98 -102 -77 -260 43 -326 25 -14 72 -18 299 -20 292 -4 337 2
395 45 87 67 94 212 14 295 -34 36 -113 65 -183 67 -102 5 -314 6 -399 3z
m510 -58 c42 -21 32 -26 -27 -14 -54 10 -555 7 -594 -4 l-25 -8 24 21 c22 20
34 21 308 21 239 0 289 -3 314 -16z"/>
<path d="M17810 8107 c0 -1 35 -36 78 -77 l77 -75 -75 78 c-69 71 -80 82 -80
74z"/>
<path d="M2706 7923 c-25 -32 -46 -62 -46 -66 0 -9 26 22 73 86 43 58 24 44
-27 -20z"/>
<path d="M18450 11688 c0 -11 30 -78 35 -78 3 0 -2 17 -10 37 -15 36 -25 52
-25 41z"/>
<path d="M18710 11105 c0 -5 5 -17 10 -25 5 -8 10 -10 10 -5 0 6 -5 17 -10 25
-5 8 -10 11 -10 5z"/>
<path d="M18750 11011 c0 -6 4 -13 10 -16 6 -3 7 1 4 9 -7 18 -14 21 -14 7z"/>
<path d="M18851 10798 c-1 -12 31 -89 35 -85 3 2 -4 24 -15 48 -11 24 -20 41
-20 37z"/>
<path d="M18936 10600 c3 -14 10 -32 15 -40 7 -13 8 -13 8 0 0 8 -6 26 -15 40
l-15 25 7 -25z"/>
<path d="M19011 10435 c0 -5 15 -41 34 -80 18 -38 33 -65 34 -60 0 6 -15 42
-34 80 -18 39 -33 66 -34 60z"/>
<path d="M3940 7859 c-71 -12 -122 -29 -135 -44 -15 -18 -103 -47 -116 -39 -7
4 -10 3 -6 -2 3 -5 -29 -27 -70 -49 -273 -144 -473 -427 -523 -738 -18 -108
-8 -320 19 -422 44 -168 187 -402 303 -497 137 -112 270 -182 426 -226 88 -24
113 -27 267 -27 198 1 291 19 433 85 242 114 419 292 518 522 127 297 118 580
-26 873 -111 224 -292 391 -530 485 -47 19 -89 39 -95 45 -21 23 -105 37 -255
40 -85 2 -180 0 -210 -6z m300 -44 c133 -13 249 -51 371 -122 100 -58 82 -62
-28 -6 -159 79 -270 106 -453 107 -198 1 -328 -29 -507 -119 -65 -33 -80 -38
-58 -20 85 71 296 148 450 164 79 8 94 8 225 -4z m45 -378 c206 -57 383 -242
440 -462 19 -76 19 -220 -1 -298 -58 -225 -252 -412 -481 -463 -148 -33 -328
-2 -461 79 -132 80 -252 244 -287 393 -23 99 -17 252 15 343 74 211 288 391
505 425 51 8 217 -3 270 -17z m-348 -1238 c156 -41 344 -20 495 54 50 25 63
28 50 14 -21 -23 -107 -67 -182 -93 -44 -15 -83 -19 -190 -19 -121 1 -143 4
-214 28 -70 25 -177 85 -191 108 -3 4 30 -10 74 -32 44 -21 115 -49 158 -60z"/>
<path d="M12022 7859 c8 -6 -12 -7 -47 -3 -47 4 -57 3 -45 -6 12 -9 7 -10 -25
-6 -22 3 -35 2 -28 -2 7 -5 -16 -15 -56 -25 -98 -26 -277 -117 -362 -185 -181
-143 -299 -327 -361 -559 -20 -77 -23 -110 -22 -258 1 -198 15 -267 89 -422
129 -272 372 -473 673 -555 64 -18 106 -21 257 -22 164 0 189 2 277 26 140 38
310 128 414 218 142 123 271 333 319 518 70 273 16 580 -146 822 -64 95 -192
224 -284 285 -80 53 -247 122 -345 143 -45 10 -78 21 -74 25 4 4 -14 4 -41 0
-28 -3 -46 -2 -43 3 4 5 -31 9 -79 10 -51 1 -79 -2 -71 -7z m288 -55 c41 -9
109 -29 150 -45 72 -28 195 -97 187 -105 -2 -2 -40 14 -83 35 -288 145 -629
144 -928 -2 -86 -42 -102 -48 -75 -26 19 15 72 47 119 70 186 91 413 117 630
73z m-108 -354 c237 -34 434 -212 508 -458 31 -104 25 -275 -13 -375 -75 -195
-255 -356 -448 -402 -75 -17 -206 -19 -281 -4 -29 6 -95 31 -147 56 -217 104
-354 324 -353 568 1 207 110 398 297 524 130 87 268 115 437 91z m-462 -1180
c40 -27 150 -67 218 -80 159 -28 312 -7 471 65 72 33 74 33 46 9 -45 -39 -143
-82 -221 -99 -90 -19 -232 -19 -314 1 -77 18 -191 72 -240 115 -27 23 -29 28
-10 18 14 -6 36 -20 50 -29z"/>
<path d="M16500 7859 c-30 -5 -56 -13 -58 -18 -2 -5 -13 -7 -25 -4 -18 4 -20
3 -7 -7 12 -9 8 -11 -20 -7 -19 3 -29 3 -22 0 8 -3 -26 -21 -73 -40 -337 -135
-560 -398 -642 -757 -26 -114 -21 -317 10 -438 75 -285 226 -487 479 -637 275
-164 629 -187 934 -60 250 104 460 317 555 564 54 139 72 249 66 410 -11 286
-110 509 -315 707 -99 95 -203 162 -329 210 -45 17 -80 35 -78 39 19 30 -351
60 -475 38z m375 -58 c114 -24 236 -70 313 -120 79 -51 89 -71 15 -27 -295
173 -666 188 -983 40 -61 -28 -86 -36 -70 -23 58 49 204 110 320 134 99 20
298 18 405 -4z m-67 -357 c101 -21 196 -72 283 -152 83 -77 135 -150 175 -247
27 -65 29 -79 29 -205 0 -115 -3 -145 -23 -201 -64 -187 -208 -332 -395 -401
-64 -23 -92 -29 -127 -24 -31 4 -40 3 -30 -4 11 -7 4 -9 -25 -9 -35 1 -37 2
-15 9 24 8 23 8 -8 9 -22 1 -31 -3 -26 -10 11 -18 -99 -2 -179 26 -185 63
-336 214 -397 395 -31 91 -38 243 -16 341 40 181 169 340 346 429 48 24 77 33
185 54 48 9 152 5 223 -10z m262 -1158 c-32 -32 -138 -88 -205 -108 -57 -18
-94 -22 -200 -22 -113 0 -140 4 -209 27 -66 21 -193 93 -184 103 2 1 39 -15
83 -36 170 -82 376 -92 555 -28 52 19 111 44 130 56 41 25 50 28 30 8z"/>
<path d="M16195 6440 c10 -11 20 -20 23 -20 3 0 -3 9 -13 20 -10 11 -20 20
-23 20 -3 0 3 -9 13 -20z"/>
<path d="M16230 6397 c0 -2 19 -19 43 -37 l42 -33 -34 36 c-30 32 -51 46 -51
34z"/>
<path d="M6500 7853 c-25 -2 -82 -10 -128 -19 -45 -8 -88 -12 -95 -8 -7 4 -9
4 -5 -1 4 -4 -27 -22 -70 -39 -215 -87 -374 -215 -501 -404 -154 -229 -207
-524 -141 -791 86 -351 387 -653 745 -747 86 -23 122 -27 255 -28 167 -1 248
10 365 51 154 55 331 174 425 287 274 331 332 733 160 1112 -113 250 -354 457
-634 546 -39 13 -72 26 -74 29 -1 3 -15 4 -30 2 -16 -3 -22 -1 -16 4 12 8
-172 13 -256 6z m290 -48 c147 -35 335 -128 395 -195 11 -13 -14 0 -57 28 -88
57 -194 103 -306 134 -64 18 -104 21 -242 21 -146 0 -176 -3 -265 -26 -59 -16
-145 -49 -210 -82 -73 -37 -100 -47 -80 -30 77 65 274 144 410 165 81 12 275
4 355 -15z m-20 -374 c140 -44 297 -179 362 -311 50 -101 68 -180 68 -290 0
-105 -18 -186 -62 -275 -98 -202 -321 -352 -506 -340 -51 3 -60 2 -37 -5 22
-7 6 -8 -60 -5 -160 7 -300 71 -416 192 -115 119 -167 236 -176 394 -15 264
130 505 370 615 124 56 322 67 457 25z m-370 -1230 c169 -40 343 -21 495 53
38 19 71 33 73 31 10 -10 -114 -79 -183 -102 -69 -23 -97 -27 -210 -27 -149
-1 -237 20 -336 80 -88 53 -90 69 -4 25 42 -22 117 -49 165 -60z"/>
<path d="M17415 7560 c97 -106 109 -118 99 -99 -12 22 -61 75 -120 129 -35 33
-30 24 21 -30z"/>
<path d="M3339 7543 l-34 -38 38 34 c20 19 37 36 37 38 0 8 -8 0 -41 -34z"/>
<path d="M15631 7014 c0 -11 3 -14 6 -6 3 7 2 16 -1 19 -3 4 -6 -2 -5 -13z"/>
</g>
</svg>
